<svg xmlns="http://www.w3.org/2000/svg" width="32" height="32" viewBox="0 0 32 32">
  <defs>
    <linearGradient id="shieldGradient" x1="0%" y1="0%" x2="100%" y2="100%">
      <stop offset="0%" style="stop-color:#22c55e;stop-opacity:1" />
      <stop offset="100%" style="stop-color:#16a34a;stop-opacity:1" />
    </linearGradient>
  </defs>

  <!-- Shield base -->
  <path d="M16 2 L26 6 L26 16 C26 22 22 26 16 28 C10 26 6 22 6 16 L6 6 Z"
        fill="url(#shieldGradient)"
        stroke="#15803d"
        stroke-width="1"/>

  <!-- Lock -->
  <rect x="12" y="14" width="8" height="6" rx="1" fill="#000" opacity="0.8"/>
  <rect x="13.5" y="12" width="5" height="4" rx="2.5" fill="#000" opacity="0.8"/>
  <circle cx="16" cy="16" r="1.5" fill="#22c55e"/>
  <rect x="14.5" y="17" width="3" height="2" rx="0.5" fill="#22c55e"/>

  <!-- Stealth lines -->
  <path d="M8 8 L12 10" stroke="#000" stroke-width="0.5" opacity="0.6"/>
  <path d="M20 10 L24 8" stroke="#000" stroke-width="0.5" opacity="0.6"/>
  <path d="M8 12 L10 14" stroke="#000" stroke-width="0.5" opacity="0.6"/>
  <path d="M22 14 L24 12" stroke="#000" stroke-width="0.5" opacity="0.6"/>
</svg>